<svg xmlns="http://www.w3.org/2000/svg" version="1.1" xmlns:xlink="http://www.w3.org/1999/xlink" width="2000" height="94" viewBox="0 0 2000 94"><svg xml:space="preserve" width="2000" height="94" data-version="2" data-id="lg_ZLEa0gRoOT26q6pMfK" viewBox="0 0 487 94" x="0" y="0"><rect width="100%" height="100%" fill="transparent"></rect><path fill="#fff" d="M29.62 37.545q9.08-8.51 16.24-14.23-5.82-.33-17.47-1.45.9 8.51 1.23 15.68m38.87-28.67q1.45 1 1.45 2.68 0 4.04-6.77 10.48-6.78 6.44-19.21 16.29-6.5 5.15-9.8 7.95-3.3 2.8-4.09 4.26-.56 1.01-.78 2.35-.23 1.35-.23 2.86 0 1.51-.11 2.52-.78 5.49-1.79 9.63-1.01 4.14-2.3 7.28-1.28 3.14-3.52 5.6-1.46 1.68-3.36 3.08-1.91 1.4-3.59 1.4-3.81 0-3.81-6.16 0-2.02.4-4.65.39-2.63.5-3.41l.56-3.59q-2.46 2.02-4.48 2.02-1.34 0-2.02-.9-.67-.89-.67-2.46 0-2.24 1.23-4.59 1.01-2.02 3.59-4.82 2.01-2.35 2.85-3.64.84-1.29 1.18-2.86.9-5.71.9-10.97 0-4.26-.45-7.51-.34-2.68-1.01-5.26l-.67-3.42q-.56-2.85-.56-5.32 0-11.87 13.44-11.87 1.45 0 4.37.23 7.16.67 17.13.89l3.47.11 8.18-.11q7.06 0 9.97 1.91"></path><rect width="65.07" height="79.41" x="-32.53" y="-39.7" fill="none" rx="0" ry="0" transform="translate(37.9 46.05)"></rect><path fill="#fff" d="M115.64 76.405q1.68.56 1.68 2.02 0 1.79-2.13 3.92-2.35 2.35-6.05 2.35-1.79 0-3.02-.45-5.94-1.9-10.75-1.9-8.4 0-17.14 5.37-1.45 1.01-3.53 1.63-2.07.61-3.86.61-1.68 0-2.69-.61-1.01-.62-1.01-1.96 0-.79.23-1.35 3.25-9.07 5.21-16.35 1.96-7.28 2.63-14.78 1.01-10.08 1.01-14.79 0-12.43-4.82-19.04-.56-.67-.56-1.79 0-2.24 3.14-4.2 3.13-1.96 6.16-1.96 2.01 0 2.91.9 1.45.56 1.9 1.79 2.8 7.39 7.73 12.49 4.93 5.09 11.65 5.09 1.23 0 3.69-.44 1.57-.23 2.02-.23 1.9 0 2.86.84.95.84.95 2.3 0 1.57-1.29 3.13-1.29 1.57-3.42 2.24-4.59 1.57-9.18 1.57-5.49 0-10.53-2.24-.22 6.27-.56 9.41l-.78 7.06q4.37-.79 8.73-1.35l1.57-.11q4.48 0 4.48 3.02 0 2.02-2.24 3.59-2.24 1.57-4.59 2.01-3.47.68-9.52 1.46-1.23 5.49-2.69 10.3 7.39-2.68 15.01-2.68 8.4 0 16.8 3.13"></path><rect width="50.18" height="76.83" x="-25.09" y="-38.41" fill="none" rx="0" ry="0" transform="translate(92.73 52.04)"></rect><path fill="#fff" d="M164.14 24.325q-2.69 20.39-2.69 38.42 0 8.73.67 17.69.22.68.22 1.12 0 .34-.22 1.01 0 .11-.06.11h-.05v.23q-.67 1.9-3.14 3.3-2.46 1.4-5.26 1.63-4.48.44-5.38-2.36-3.92-10.52-12.43-29.12l-1.34-3.13q-.9 14-1.12 29.9 0 2.35-3.14 4.2t-6.38 1.85q-2.02 0-3.25-.78-1.23-.79-1.12-2.58.67-30.46 4.37-57.68l.11-.45q-.23-2.46 3.02-4.48 3.25-2.01 6.5-2.01 3.36 0 4.14 2.24 3.59 9.74 10.64 25.08.67-10.52 2.35-21.39.34-2.24 3.59-3.97 3.25-1.74 6.38-1.74 4.03 0 3.59 2.91"></path><rect width="44.93" height="67.98" x="-22.46" y="-33.99" fill="none" rx="0" ry="0" transform="translate(142.37 55.69)"></rect><path fill="#fff" d="M202.22 21.525q2.35-.22 3.64.56 1.28.79 2.74 3.03.9 1.45.9 2.46 0 2.46-3.14 2.91l-3.92.45q-5.49.78-5.82.78-1.91 17.92-3.03 31.14-1.12 13.22-1.45 26.1-.12 1.56-1.29 2.35-1.18.78-3.08.78-3.36 0-6.67-1.85-3.3-1.84-3.19-4.2.34-11.87 1.35-24.24 1-12.38 2.68-28.73l-7.05.89q-1.57.12-2.41-.16-.84-.28-1.62-1.29-.79-1.01-1.57-2.24-.9-1.23-.9-2.47 0-1 .79-1.79.78-.78 2.35-1.01 2.46-.33 5.71-.78l5.71-.78 2.02-19.38q.33-3.14 4.59-3.14 3.36 0 6.55 1.85t2.97 4.2l-1.46 15.01q3.14-.22 4.6-.45"></path><rect width="41.11" height="91.17" x="-20.55" y="-45.59" fill="none" rx="0" ry="0" transform="translate(189.45 47)"></rect><path fill="#fff" d="m226.52 54.235-.9 2.24 7.84 6.6-.78-3.24q-.78-3.14-3.14-13.33Zm12.77-32.71q1.57 9.75 3.97 19.77 2.41 10.02 5.88 23.02 3.25 12.32 4.26 16.35.11.33.11 1.01 0 2.68-3.02 4.64-3.03 1.96-6.27 1.96-2.69 0-4.15-1.45-3.25-3.47-6.83-6.61t-9.41-7.73l-3.69-3.02q-4.71 10.08-7.28 14.89-.79 1.68-4.09 3.08-3.31 1.4-6.11 1.4-3.13 0-3.13-2.01 0-.56.33-1.35 3.36-8.28 7.96-19.04l2.35-5.71-2.8-2.8q-.79-.78-.79-1.79 0-1.9 2.47-3.64 2.46-1.74 5.49-2.3 5.37-12.88 10.08-26.2.44-1.57 2.85-2.75 2.41-1.17 5.1-1.51 1.9-.56 3.25-.56 3.13 0 3.47 2.35"></path><rect width="53.98" height="69.66" x="-26.99" y="-34.83" fill="none" rx="0" ry="0" transform="translate(227.02 54.5)"></rect><path fill="#fff" d="M309.4 48.855q.11.11.11.34.79 7.05.79 15.23 0 9.07-1.12 17.36-.34 2.24-3.48 3.97-3.13 1.74-6.16 1.74-1.79 0-2.8-.73-1-.73-.89-2.29 1.12-10.31 1.12-18.26-3.47 8.85-9.41 14.95-5.94 6.11-13.78 6.11-1.68 0-3.36-.34-7.28-1.23-10.41-6.66-3.14-5.44-3.14-13.39 0-7.84 2.58-17.02 2.01-6.95 5.99-13.39 3.98-6.44 9.69-10.58 5.71-4.14 12.54-4.14 5.83 0 8.51 2.24 2.69 2.24 2.69 5.93 0 4.59-3.36 10.14-3.36 5.54-7.17 8.45-1.12.79-3.02 1.29-1.9.51-3.7.51-2.01 0-3.24-.56-1.24-.56-1.24-1.57 0-1.46 2.24-3.36 1.46-1.23 3.98-5.32t2.52-6.44q0-2.13-2.35-2.13-3.36 0-7.95 10.08-2.58 5.04-3.81 10.98-1.57 7.16-1.57 13.21 0 10.87 5.94 11.99 2.35.33 4.64-3.53 2.3-3.87 3.98-9.13-1.46.78-4.37 2.13-1.79.78-3.92.78-2.24 0-3.36-1.12-.67-.89-.67-1.68 0-1.01.62-1.96.61-.95 1.51-1.51 14.22-9.74 27.1-15.57 1.01-.45 2.47-.45 2.24 0 3.92 1.07 1.68 1.06 1.34 2.63"></path><rect width="53.43" height="65.74" x="-26.71" y="-32.87" fill="none" rx="0" ry="0" transform="translate(284.09 55.13)"></rect><path fill="#fff" d="M334.94 48.405q4.36-3.47 7.11-6.16 2.74-2.69 4.2-5.37-6.05-1.57-17.92-5.16l-.56 22.74q3.36-2.8 3.92-3.36Zm18.03 15.68q.89-1.79 3.81-3.08 2.91-1.29 5.6-1.29 3.69 0 3.69 2.36 0 .67-.33 1.56-4.6 10.76-6.95 20.84-.56 2.24-3.25 4.14-1.12 1.46-3.41 2.46-2.3 1.01-4.54 1.01-1.9 0-3.08-.78-1.17-.79-1.29-2.47-.44-7.28-4.76-13.32-4.31-6.05-11.03-7.84l-.56 16.24q-.11 2.12-3.53 3.92-3.41 1.79-6.55 1.79-1.68 0-2.69-.62-1-.61-1-1.96l.33-15.45q-1.45-1.01-1.45-2.36 0-1.56 1.68-3.02.56-20.38 1.34-40.66.11-2.35 3.19-4.08 3.08-1.74 6.22-1.74 2.35 0 3.36 1.12 12.21 3.36 25.31 7.39 2.02-.45 2.8-.45 1.9 0 2.97.84 1.06.84 1.06 2.52 0 4.6-3.02 8.46-3.03 3.86-8.4 8.57l-2.24 2.01q-5.38 5.27-10.42 9.3 9.19 2.58 14.79 10.19.44-1.12 2.35-5.6"></path><rect width="54.09" height="72.35" x="-27.05" y="-36.17" fill="none" rx="0" ry="0" transform="translate(339.53 56.41)"></rect><path fill="#fff" d="m391.16 54.235-.9 2.24 7.84 6.6-.78-3.24q-.78-3.14-3.14-13.33Zm12.77-32.71q1.57 9.75 3.97 19.77 2.41 10.02 5.88 23.02 3.25 12.32 4.26 16.35.11.33.11 1.01 0 2.68-3.02 4.64-3.03 1.96-6.27 1.96-2.69 0-4.15-1.45-3.25-3.47-6.83-6.61t-9.41-7.73l-3.69-3.02q-4.71 10.08-7.28 14.89-.79 1.68-4.09 3.08-3.31 1.4-6.11 1.4-3.13 0-3.13-2.01 0-.56.33-1.35 3.36-8.28 7.96-19.04l2.35-5.71-2.8-2.8q-.79-.78-.79-1.79 0-1.9 2.47-3.64 2.46-1.74 5.49-2.3 5.37-12.88 10.08-26.2.44-1.57 2.85-2.75 2.41-1.17 5.1-1.51 1.9-.56 3.25-.56 3.13 0 3.47 2.35"></path><rect width="53.98" height="69.66" x="-26.99" y="-34.83" fill="none" rx="0" ry="0" transform="translate(391.66 54.5)"></rect><path fill="#fff" d="M474.26 23.315q.23.34.45 1.24 1.35 13.77 4.82 43.56l1.45 12.77q.34 2.47-2.74 4.37t-6.44 1.9q-2.02 0-3.42-.84t-1.51-2.63q-1.45-15.57-3.36-32.14-3.02 6.49-6.05 11.98-.44.9-1.68 1.79-1.45 1.35-3.64 2.19-2.18.84-4.2.84-3.47 0-4.59-2.35-2.01-4.48-4.03-9.64l-.56 3.36q-1.46 9.3-3.92 23.97-.34 2.35-3.75 4.09-3.42 1.74-6.67 1.74-1.79 0-2.8-.68-1-.67-.78-2.12 5.94-39.2 9.3-57.8.44-2.35 3.8-4.14 3.36-1.79 6.39-1.68 1.79-.22 3.08.28t1.51 1.74q2.8 12.65 6.94 23.18 4.82-10.86 9.19-22.4.67-1.9 3.53-3.25 2.85-1.34 5.65-1.34 3.36 0 4.03 2.01"></path><rect width="60.41" height="68.21" x="-30.2" y="-34.1" fill="none" rx="0" ry="0" transform="translate(451.43 55.91)"></rect></svg></svg>